{"title":"Mr Brooks(2007)MPEG-4[DaScubaDude]","uid":14728258,"size":1311477048,"categoryP":"video","categoryS":"movies","magnet":"?xt=urn:btih:8a5a3510467b28b413ab173b1fd01a0f1e5458a4&amp;dn=Mr+Brooks%282007%29MPEG-4%5BDaScubaDude%5D&amp;tr=udp%3A%2F%2Ftracker.leechers-paradise.org%3A6969&amp;tr=udp%3A%2F%2Fzer0day.ch%3A1337&amp;tr=udp%3A%2F%2Fopen.demonii.com%3A1337&amp;tr=udp%3A%2F%2Ftracker.coppersurfer.tk%3A6969&amp;tr=udp%3A%2F%2Fexodus.desync.com%3A6969","seeders":0,"leechers":0,"uploader":"dascuba","files":1,"time":1464570332,"description":"Mr. Brooks (2007)\r\nR | 2h | Crime, Drama, Thriller | 1 June 2007 (USA)\r\nA psychological thriller about a man who is sometimes controlled by his murder-and-mayhem-loving alter ego.\r\nDirector: Bruce A. Evans\r\nWriters: Bruce A. Evans, Raynold Gideon\r\nStars: Kevin Costner, Demi Moore, William Hurt |\r\n\r\nGeneral\r\nComplete name                            : MrBrooksMR_BROOKS_US_Title1.mp4\r\nFormat                                   : MPEG-4\r\nFormat profile                           : Base Media\r\nCodec ID                                 : isom (isom/iso2/avc1/mp41)\r\nFile size                                : 1.22 GiB\r\nDuration                                 : 2h 0mn\r\nOverall bit rate mode                    : Variable\r\nOverall bit rate                         : 1 450 Kbps\r\nMovie name                               : MR_BROOKS_US\r\nGenre                                    : Thriller\r\nWriting application                      : Lavf54.6.100\r\n\r\nVideo\r\nID                                       : 1\r\nFormat                                   : AVC\r\nFormat/Info                              : Advanced Video Codec\r\nFormat profile                           :   \r\nFormat settings, CABAC                   : No\r\nFormat settings, ReFrames                : 6 frames\r\nCodec ID                                 : avc1\r\nCodec ID/Info                            : Advanced Video Coding\r\nDuration                                 : 2h 0mn\r\nBit rate                                 : 1 191 Kbps\r\nWidth                                    : 720 pixels\r\nHeight                                   : 404 pixels\r\nDisplay aspect ratio                     : 16:9\r\nFrame rate mode                          : Constant\r\nFrame rate                               : 29.970 (30000/1001) fps\r\nColor space                              : YUV\r\nChroma subsampling                       : 4:2:0\r\nBit depth                                : 8 bits\r\nScan type                                : Progressive\r\nBits/(Pixel*Frame)                       : 0.137\r\nStream size                              : 1.00 GiB (82%)\r\n\r\nAudio\r\nID                                       : 2\r\nFormat                                   : AAC\r\nFormat/Info                              : Advanced Audio Codec\r\nFormat profile                           : LC\r\nCodec ID                                 : 40\r\nDuration                                 : 2h 0mn\r\nBit rate mode                            : Variable\r\nBit rate                                 : 253 Kbps\r\nMaximum bit rate                         : 342 Kbps\r\nChannel(s)                               : 2 channels\r\nChannel(s)_Original                      : 6 channels\r\nChannel positions                        : Front: L C R, Side: L R, LFE\r\nSampling rate                            : 44.1 KHz\r\nFrame rate                               : 43.066 fps (1024 spf)\r\nCompression mode                         : Lossy\r\nStream size                              : 218 MiB (17%)\r\nDefault                                  : Yes\r\nAlternate group                          : 1","torrent":{"xt":"urn:btih:8a5a3510467b28b413ab173b1fd01a0f1e5458a4","amp;dn":"Mr+Brooks%282007%29MPEG-4%5BDaScubaDude%5D","amp;tr":["udp%3A%2F%2Ftracker.leechers-paradise.org%3A6969","udp%3A%2F%2Fzer0day.ch%3A1337","udp%3A%2F%2Fopen.demonii.com%3A1337","udp%3A%2F%2Ftracker.coppersurfer.tk%3A6969","udp%3A%2F%2Fexodus.desync.com%3A6969"],"infoHash":"8a5a3510467b28b413ab173b1fd01a0f1e5458a4","infoHashBuffer":{"type":"Buffer","data":[138,90,53,16,70,123,40,180,19,171,23,59,31,208,26,15,30,84,88,164]},"announce":[],"urlList":[]}}